<svg width="107" height="46" viewBox="0 0 107 46" fill="none" xmlns="http://www.w3.org/2000/svg">
<rect x="0.0625" width="106.875" height="46" rx="16" fill="white"/>
<path d="M47.9977 21.9623C47.9977 19.9986 47.6255 18.1257 46.9767 16.3885C46.805 22.1066 40.9912 26.5338 37.578 29.4635H46.1216C47.3159 27.2265 47.9977 24.6745 47.9977 21.9623ZM41.8213 9.37151C39.1162 7.26609 35.7245 6 32.0304 6C23.2116 6 16.0625 13.1469 16.0625 21.9623C16.0625 30.7776 23.2116 37.9243 32.0304 37.9243C36.0687 37.9243 39.7457 36.4139 42.5576 33.9421H30.9974L30.9621 30.5483C37.9276 24.4949 42.1975 20.4011 42.1975 16.4469C42.1975 14.9773 41.6376 13.1229 39.1177 13.1229C37.1224 13.1229 35.1975 14.2783 35.5474 19.1064H31.4875C30.4723 13.5085 33.5174 9.06428 39.3272 9.06428C40.2279 9.06428 41.0611 9.17177 41.8213 9.37151Z" fill="#A3C626"/>
<path d="M62.8421 17.032H66.619C66.7481 14.1602 65.78 9.60938 59.55 9.60938C54.9657 9.60938 51.6406 12.353 51.6406 18.0647C51.6406 18.8393 51.6727 22.8407 51.6727 25.3255C51.6727 31.5222 55.9667 32.8772 59.5821 32.8772C61.745 32.8772 64.8762 32.3929 66.3286 30.8117V20.9367H59.2268V24.5189H62.3906V28.8756C60.0015 29.6822 55.6434 30.0052 55.6434 24.5189V18.0647C55.6434 14.2243 57.4192 12.9013 59.3879 12.9013C61.422 12.9013 62.8421 13.9341 62.8421 17.032ZM90.9357 26.6161C91.0969 17.7744 80.9611 20.7106 81.0573 15.7734C81.0894 14.0311 82.2195 12.9013 84.06 12.9013C86.029 12.9013 87.1903 14.0631 87.1582 17.0969H90.8707C90.9678 14.3534 90.3222 9.67435 84.1891 9.67435C80.3796 9.67435 77.2487 11.5464 77.1837 15.7091C77.0225 24.1957 87.2233 21.4208 87.0621 26.552C86.9971 28.6495 85.4796 29.5852 83.7691 29.5852C81.768 29.5852 80.1536 28.4234 80.4767 24.9382H76.7313C76.3119 29.5531 78.3459 32.8452 83.737 32.8452C88.2884 32.8452 90.8707 30.3274 90.9357 26.6161ZM73.8818 32.554H70.0732V9.9646H73.8818V32.554ZM73.8818 32.554H70.0732V9.9646H73.8818V32.554Z" fill="#434242"/>
</svg>
