<svg width="184" height="34" viewBox="0 0 184 34" fill="none" xmlns="http://www.w3.org/2000/svg">
<path fill-rule="evenodd" clip-rule="evenodd" d="M108.814 20.3277L115.078 17.7071C114.733 16.8264 113.698 16.2109 112.478 16.2109C110.911 16.2109 108.735 17.6004 108.814 20.3277ZM116.164 22.866L118.552 24.4689C117.784 25.6177 115.925 27.5953 112.714 27.5953C108.735 27.5953 105.86 24.4932 105.86 20.541C105.86 16.3419 108.762 13.4836 112.369 13.4836C116.007 13.4836 117.784 16.3968 118.368 17.9752L118.685 18.7766L109.316 22.6771C110.033 24.0941 111.147 24.8162 112.714 24.8162C114.279 24.8162 115.369 24.0392 116.164 22.866ZM100.981 27.1687H104.059V6.4293H100.981V27.1687ZM95.9577 20.5654C95.9577 18.0819 94.3114 16.2627 92.2142 16.2627C90.0927 16.2627 88.3132 18.0819 88.3132 20.5654C88.3132 23.0245 90.0927 24.8162 92.2142 24.8162C94.3114 24.8162 95.9577 23.0245 95.9577 20.5654ZM98.6632 13.9133V26.5806C98.6632 31.7913 95.6127 33.9305 92.0023 33.9305C88.6037 33.9305 86.561 31.6329 85.7923 29.7619L88.4736 28.6375C88.9518 29.7863 90.1199 31.1484 92.0053 31.1484C94.3144 31.1484 95.7489 29.707 95.7489 27.0072V25.9925H95.643C94.953 26.8487 93.6244 27.5953 91.9539 27.5953C88.4494 27.5953 85.2385 24.5207 85.2385 20.5654C85.2385 16.5826 88.4494 13.4836 91.9539 13.4836C93.6274 13.4836 94.953 14.2302 95.643 15.059H95.7489V13.9102C95.7459 13.9133 98.6632 13.9133 98.6632 13.9133ZM65.068 20.541C65.068 17.9996 63.2704 16.2657 61.1853 16.2657C59.1001 16.2657 57.3025 18.0027 57.3025 20.541C57.3025 23.0519 59.1001 24.8162 61.1853 24.8162C63.2674 24.8162 65.068 23.0519 65.068 20.541ZM68.0883 20.541C68.0883 24.6029 64.9863 27.5953 61.1822 27.5953C57.3781 27.5953 54.2762 24.6029 54.2762 20.541C54.2762 16.4516 57.3781 13.4867 61.1822 13.4867C64.9893 13.4867 68.0883 16.4516 68.0883 20.541ZM80.5477 20.541C80.5477 17.9996 78.75 16.2657 76.6649 16.2657C74.5798 16.2657 72.7821 18.0027 72.7821 20.541C72.7821 23.0519 74.5798 24.8162 76.6649 24.8162C78.75 24.8162 80.5477 23.0519 80.5477 20.541ZM83.571 20.541C83.571 24.6029 80.469 27.5953 76.6649 27.5953C72.8608 27.5953 69.7588 24.6029 69.7588 20.541C69.7588 16.4516 72.8608 13.4867 76.6649 13.4867C80.469 13.4867 83.571 16.4516 83.571 20.541ZM42.4463 27.5953C36.4481 27.5953 31.4062 22.6771 31.4062 16.6375C31.4062 10.5979 36.4511 5.67969 42.4493 5.67969C45.7692 5.67969 48.1297 6.98999 49.9092 8.70253L47.8119 10.8143C46.5379 9.6106 44.8129 8.67511 42.4493 8.67511C38.0702 8.67511 34.6444 12.2312 34.6444 16.6405C34.6444 21.0499 38.0702 24.6029 42.4493 24.6029C45.288 24.6029 46.9071 23.4541 47.9451 22.412C48.7955 21.5588 49.3523 20.3277 49.5642 18.6456H42.4493V15.6532H52.4543C52.5633 16.1865 52.6147 16.8295 52.6147 17.5242C52.6147 19.77 52.0034 22.5491 50.0423 24.5268C48.1267 26.5288 45.6844 27.5953 42.4463 27.5953Z" fill="#5F6368"/>
<path d="M125.953 26.9731V8.5625H128.303L134.661 19.7734H134.763L141.122 8.5625H143.471V26.9731H141.122V16.045L141.224 12.9594H141.122L135.402 23.0647H134.023L128.303 12.9594H128.2L128.303 16.045V26.9731H125.953Z" fill="#63666A"/>
<path d="M150.697 27.3832C149.369 27.3832 148.258 26.9975 147.364 26.2261C146.47 25.4547 146.023 24.439 146.023 23.1662C146.023 21.7906 146.547 20.7235 147.607 19.9392C148.666 19.155 149.969 18.7693 151.514 18.7693C152.893 18.7693 154.029 19.0264 154.91 19.5407V19.1807C154.91 18.255 154.591 17.5093 153.965 16.9565C153.34 16.4037 152.561 16.1208 151.642 16.1208C150.965 16.1208 150.339 16.288 149.79 16.6094C149.241 16.9308 148.858 17.3808 148.654 17.9465L146.509 17.0208C146.802 16.2623 147.364 15.568 148.22 14.9252C149.075 14.2824 150.199 13.9609 151.59 13.9609C153.187 13.9609 154.514 14.4366 155.574 15.3752C156.634 16.3137 157.157 17.6508 157.157 19.3607V26.9718H154.91V25.2233H154.808C153.876 26.6632 152.497 27.3832 150.697 27.3832ZM151.08 25.2233C152.05 25.2233 152.931 24.8633 153.723 24.1305C154.514 23.3977 154.91 22.5363 154.91 21.5463C154.246 20.9935 153.25 20.7235 151.922 20.7235C150.786 20.7235 149.918 20.9678 149.343 21.4692C148.769 21.9706 148.475 22.5491 148.475 23.2177C148.475 23.8348 148.743 24.3233 149.267 24.6833C149.79 25.0433 150.403 25.2233 151.08 25.2233Z" fill="#63666A"/>
<path d="M166.317 27.3832C165.36 27.3832 164.504 27.1775 163.751 26.7661C162.997 26.3547 162.423 25.8404 162.052 25.2233H161.95L162.052 26.9718V32.5258H159.703V14.3723H161.95V16.1208H162.052C162.423 15.5037 162.997 14.9895 163.751 14.5781C164.504 14.1666 165.36 13.9609 166.317 13.9609C167.939 13.9609 169.33 14.6038 170.505 15.8894C171.68 17.1751 172.267 18.7693 172.267 20.6721C172.267 22.5748 171.68 24.169 170.505 25.4547C169.33 26.7404 167.939 27.3832 166.317 27.3832ZM165.934 25.2233C167.019 25.2233 167.964 24.8119 168.743 23.9762C169.522 23.1405 169.918 22.0477 169.918 20.6721C169.918 19.2964 169.522 18.2036 168.743 17.3679C167.964 16.5323 167.019 16.1208 165.934 16.1208C164.823 16.1208 163.891 16.5322 163.112 17.3551C162.333 18.1779 161.95 19.2836 161.95 20.6721C161.95 22.0606 162.333 23.1662 163.112 23.9891C163.891 24.8119 164.836 25.2233 165.934 25.2233Z" fill="#63666A"/>
<path d="M179.066 27.3832C177.675 27.3832 176.513 27.0361 175.606 26.3547C174.7 25.6733 174.023 24.8119 173.602 23.7833L175.696 22.9091C176.36 24.4905 177.496 25.2747 179.092 25.2747C179.82 25.2747 180.42 25.1076 180.892 24.7862C181.365 24.4648 181.595 24.0276 181.595 23.5005C181.595 22.6777 181.02 22.1249 179.884 21.8292L177.355 21.212C176.551 21.0063 175.798 20.6206 175.083 20.0421C174.368 19.4635 174.01 18.6922 174.01 17.7151C174.01 16.5965 174.495 15.6966 175.479 15.0023C176.462 14.3081 177.624 13.9609 178.964 13.9609C180.075 13.9609 181.058 14.2181 181.927 14.7195C182.795 15.2209 183.42 15.9537 183.791 16.8922L181.748 17.7408C181.288 16.6222 180.331 16.0694 178.888 16.0694C178.185 16.0694 177.598 16.2108 177.126 16.5065C176.653 16.8022 176.411 17.1879 176.411 17.6893C176.411 18.4093 176.96 18.8979 178.071 19.155L180.548 19.7464C181.722 20.0164 182.591 20.4921 183.152 21.1606C183.714 21.8292 183.995 22.5877 183.995 23.4234C183.995 24.5547 183.535 25.4933 182.616 26.2518C181.697 26.9975 180.509 27.3832 179.066 27.3832Z" fill="#63666A"/>
<path d="M6.48438 25.1946C7.52846 26.508 8.58767 28.1535 9.14451 29.1499C9.82241 30.445 10.1008 31.3196 10.6062 32.8797C10.9028 33.7391 11.1812 34.0011 11.7714 34.0011C12.416 34.0011 12.7095 33.5623 12.9365 32.8797C13.4056 31.4079 13.7718 30.2896 14.3437 29.22C15.4726 27.1723 16.901 25.3501 18.2901 23.6009C18.6714 23.1103 21.1076 20.2216 22.2031 17.9301C22.2031 17.9301 23.5407 15.4253 23.5407 11.924C23.5407 8.65127 22.2182 6.375 22.2182 6.375L18.393 7.40801L16.0627 13.5695L15.4877 14.4105L15.3666 14.569L15.2093 14.761L14.949 15.0748L14.5677 15.4588L12.4977 17.1561L7.33477 20.1667L6.48438 25.1946Z" fill="#34A853"/>
<path d="M1.14844 17.505C2.41647 20.412 4.8345 22.9503 6.48687 25.1901L15.2329 14.7564C15.2329 14.7564 13.9982 16.3836 11.7739 16.3836C9.28622 16.3836 7.27069 14.3877 7.27069 11.8676C7.27069 10.1337 8.29661 8.94531 8.29661 8.94531L2.36502 10.539L1.14844 17.505Z" fill="#FBBC04"/>
<path d="M15.3313 0.539062C18.2336 1.4837 20.7212 3.46135 22.2162 6.38668L15.2254 14.7726C15.2254 14.7726 16.2513 13.5659 16.2513 11.8504C16.2513 9.27545 14.0966 7.33437 11.7663 7.33437C9.55709 7.33437 8.28906 8.94635 8.28906 8.94635V3.65637L15.3313 0.539062Z" fill="#4285F4"/>
<path d="M2.74219 4.23564C4.4793 2.15134 7.52378 0 11.7304 0C13.7641 0 15.3105 0.542406 15.3105 0.542406L8.28944 8.94664H3.31719L2.74219 4.23564Z" fill="#1A73E8"/>
<path d="M1.14698 17.5102C1.14698 17.5102 0 15.2156 0 11.9094C0 8.77684 1.21658 6.04348 2.76303 4.25781L8.31028 8.96577L1.14698 17.5102Z" fill="#EA4335"/>
</svg>
