<svg width="126" height="46" viewBox="0 0 126 46" fill="none" xmlns="http://www.w3.org/2000/svg">
<rect x="0.0625" width="125" height="46" rx="16" fill="white"/>
<g clip-path="url(#clip0_1601_9545)">
<path fill-rule="evenodd" clip-rule="evenodd" d="M28.9185 7C21.8177 7.00383 16.0625 12.7357 16.0625 19.8031C16.0625 23.1932 17.4158 26.4495 19.8224 28.8486C22.1522 31.1674 27.6325 34.5212 27.9573 38.0434C28.0054 38.5695 28.3898 39 28.9185 39C29.4471 39 29.8334 38.5695 29.8796 38.0434C30.2044 34.5212 35.6809 31.1731 38.0087 28.8563C40.4192 26.4571 41.7763 23.199 41.7763 19.8031C41.7783 12.7357 36.0192 7 28.9185 7Z" fill="#FF4433"/>
<path fill-rule="evenodd" clip-rule="evenodd" d="M94.1453 19.4057C94.8104 19.4057 95.4735 19.4057 96.1406 19.4076C96.1463 21.3514 96.1194 23.2971 96.154 25.2409C97.2324 23.3258 98.1974 21.3476 99.2296 19.4076C99.9024 19.4057 100.575 19.4057 101.248 19.4057C100.191 21.4164 99.1316 23.4234 98.0589 25.4265C99.2815 27.6879 100.493 29.9569 101.711 32.2202H99.5352C98.4088 30.087 97.2747 27.9576 96.1367 25.8302C96.1386 27.9615 96.1367 30.0908 96.1367 32.2202C95.4735 32.2202 94.8084 32.2202 94.1472 32.2221C94.1433 27.95 94.1453 23.6797 94.1453 19.4057ZM77.0873 30.5959C78.2214 30.594 79.3555 30.5825 80.4897 30.6017C80.5223 27.4124 80.4954 24.2231 80.5012 21.0338C79.7746 21.0319 79.046 21.0338 78.3194 21.0319C78.2041 24.2384 78.2156 27.5386 77.0873 30.5959ZM76.5183 19.4057H82.4965C82.4965 23.1364 82.4946 26.8652 82.4965 30.5921C82.8194 30.5921 83.1423 30.594 83.4672 30.594C83.4653 31.9677 83.4653 33.3375 83.4672 34.7093C82.8867 34.7112 82.3062 34.7112 81.7257 34.7093C81.7276 33.879 81.7276 33.0505 81.7257 32.2202C79.8938 32.2126 78.0638 32.2393 76.2319 32.2068C76.1896 33.041 76.2146 33.877 76.2088 34.7131C75.6091 34.715 75.0093 34.7169 74.4115 34.7016C74.4307 33.3356 74.4134 31.9677 74.4192 30.6017C74.6787 30.5959 74.9401 30.5902 75.2016 30.5844C76.5817 27.0297 76.4337 23.1498 76.5145 19.4076L76.5183 19.4057ZM66.3516 19.4057C67.0167 19.4057 67.6798 19.4057 68.3469 19.4076C68.343 21.2194 68.3468 23.0331 68.3449 24.8468C69.333 24.8487 70.3191 24.8487 71.309 24.8449C71.3071 23.0331 71.309 21.2194 71.3071 19.4076C71.9568 19.4038 72.6065 19.4038 73.2563 19.4133C73.2428 23.6836 73.2543 27.95 73.2505 32.2202H71.309C71.3071 30.307 71.309 28.39 71.309 26.4768C70.3191 26.4749 69.333 26.4749 68.3449 26.4768C68.3449 28.39 68.3468 30.307 68.3449 32.2202C67.6818 32.2202 67.0167 32.2202 66.3554 32.2221C66.3516 27.95 66.3535 23.6797 66.3535 19.4057H66.3516ZM103.862 20.1843C105.223 18.979 107.397 18.9522 108.92 19.8744C108.812 20.5 108.722 21.1295 108.633 21.757C107.862 21.1888 106.867 20.6473 105.89 21.0032C104.868 21.4222 104.46 22.5586 104.247 23.5516C103.956 25.2773 103.962 27.0718 104.404 28.7726C104.635 29.5781 105.11 30.4773 105.994 30.6992C106.926 30.8886 107.864 30.5079 108.62 29.9837C108.754 30.4716 108.908 30.9537 109.064 31.4358C107.424 32.8458 104.57 32.7196 103.272 30.9135C102.03 29.2031 101.903 26.9647 101.992 24.929C102.115 23.2244 102.519 21.3667 103.86 20.1843H103.862ZM87.5251 21.426C86.9099 22.3749 86.8638 23.5573 86.7888 24.6516C87.8768 24.6402 88.961 24.6402 90.049 24.6516C90.049 23.5229 90.0605 22.2793 89.4165 21.3036C88.9648 20.6588 87.9134 20.7717 87.5251 21.426ZM86.414 20.1002C87.2752 19.1971 88.6938 19.0326 89.8279 19.4612C90.7179 19.7979 91.2965 20.6416 91.6041 21.5064C92.1365 23.0369 92.1404 24.6842 92.0808 26.2817C90.2969 26.2511 88.515 26.274 86.7312 26.2721C86.8331 27.6133 86.8292 29.1649 87.8461 30.1903C88.9533 31.1622 90.5891 30.5385 91.6752 29.844C91.8366 30.351 91.9924 30.8618 92.1346 31.3765C90.8102 32.312 89.0379 32.6775 87.4828 32.1399C86.3044 31.6807 85.4817 30.5883 85.1146 29.4097C84.5763 27.7204 84.6225 25.9067 84.8089 24.1619C85.005 22.7212 85.3548 21.1715 86.414 20.1002Z" fill="black"/>
<path fill-rule="evenodd" clip-rule="evenodd" d="M57.9937 14.8157C59.7295 13.729 61.8497 14.1365 63.7854 14.0638C63.7873 20.1114 63.7816 26.1609 63.7892 32.2066C63.1357 32.2181 62.4802 32.2162 61.8247 32.2142C61.817 29.8935 61.8209 27.5729 61.8228 25.2502C61.2769 25.2483 60.7329 25.2483 60.1908 25.2483C59.147 27.5671 58.1167 29.8935 57.0768 32.2142C56.3194 32.2162 55.5621 32.2162 54.8047 32.2104C55.933 29.7348 57.0825 27.2706 58.2167 24.7987C56.5309 23.955 55.5774 22.103 55.564 20.2645C55.3448 18.202 56.1214 15.8986 57.9937 14.8157ZM59.4142 16.0038C58.2666 16.5529 57.74 17.873 57.6669 19.0725C57.615 20.3735 57.6919 21.8428 58.6203 22.8549C59.4642 23.6795 60.7233 23.6566 61.8247 23.6164C61.8209 20.9762 61.819 18.3341 61.8247 15.6919C61.0193 15.6996 60.1428 15.5829 59.4142 16.0038Z" fill="#FF0000"/>
<path opacity="0.25" fill-rule="evenodd" clip-rule="evenodd" d="M28.9197 24.289C31.4109 24.289 33.4331 22.2783 33.4331 19.7969C33.4331 17.3154 31.4128 15.3047 28.9197 15.3047C26.4265 15.3047 24.4062 17.3154 24.4062 19.7969C24.4062 22.2783 26.4265 24.289 28.9197 24.289Z" fill="black"/>
</g>
<defs>
<clipPath id="clip0_1601_9545">
<rect width="93" height="32" fill="white" transform="translate(16.0625 7)"/>
</clipPath>
</defs>
</svg>
