<?xml version="1.0" encoding="UTF-8"?>
<svg width="30" height="30" viewBox="0 0 60 60" xmlns="http://www.w3.org/2000/svg">
<g transform="translate(0, 61) scale(0.1, -0.1)" stroke="none">
<!-- Синий круг -->
<path fill="rgba(54, 122, 202, 1)" d="M203 574 c-57 -21 -129 -87 -161 -148 -22 -43 -27 -64 -27 -131 0-67 5 -88 27 -130 31 -60 77 -104 138 -136 63 -33 185 -34 250 -2 56 28 115 84 143 137 31 59 31 203 0 262-28 53-85 110-137 136-54 28-174 34-233 12z"/>
<!-- Белый телефон -->
<path fill="white" d="M276 375c5-26 2-41-10-54-23-25-21-33 19-71l35-34 22 20c17 15 31 19 53 15 26-5 30-11 33-45 4-52-6-59-61-45-89 22-177 128-177 212 0 36 1 37 40 37 37 0 39-2 46-35z"/>
</g>
</svg>