<svg width="29" height="21" viewBox="0 0 29 21" fill="none" xmlns="http://www.w3.org/2000/svg">
<path d="M9.0791 1.58887L13.2119 4.44434L13.9531 4.95605L13.126 5.31445C12.212 5.71043 11.3311 6.18909 10.4834 6.75098C9.63937 7.31041 8.8823 7.91706 8.21094 8.57031L7.98145 8.81348C7.72379 9.09624 7.49706 9.38051 7.29883 9.66504C7.6257 9.58971 8.02383 9.55666 8.48047 9.55664C9.26207 9.55664 10.035 9.74777 10.793 10.1172H10.792C11.5993 10.4601 12.2704 11.0063 12.8027 11.7441H12.8037C13.3748 12.4998 13.6367 13.4652 13.6367 14.5947C13.6367 15.8643 13.3385 16.9711 12.7129 17.8857C12.1026 18.778 11.2977 19.4501 10.3076 19.8955L10.2998 19.8984C9.35957 20.3017 8.33253 20.5 7.22559 20.5C5.75224 20.5 4.47932 20.158 3.4375 19.4434C2.42149 18.7464 1.66274 17.8417 1.1709 16.7354L1.16797 16.7295L1.16504 16.7227C0.72067 15.6398 0.500049 14.4871 0.5 13.2695C0.5 11.4915 0.902231 9.81515 1.70605 8.24805L1.70801 8.24414C2.53421 6.66851 3.56105 5.29756 4.78906 4.13574C6.00917 2.98145 7.27754 2.11209 8.5957 1.54102L8.85059 1.43066L9.0791 1.58887ZM22.9971 1.59082L27.0771 4.44629L27.8105 4.95898L26.9893 5.31445C26.0752 5.71043 25.1944 6.18909 24.3467 6.75098C23.5027 7.3104 22.7456 7.91708 22.0742 8.57031L21.8447 8.81348C21.5871 9.09624 21.3603 9.38051 21.1621 9.66504C21.4922 9.58923 21.9093 9.55664 22.3965 9.55664C23.1714 9.55666 23.9367 9.74511 24.6885 10.1084H24.6895C25.477 10.4539 26.1386 11.0086 26.6738 11.7539H26.6729C27.2391 12.5082 27.5 13.4698 27.5 14.5947C27.5 15.8644 27.2008 16.971 26.5752 17.8857C25.965 18.7778 25.1609 19.4501 24.1709 19.8955L24.1631 19.8984C23.2249 20.3008 22.2152 20.5 21.1406 20.5C19.6354 20.5 18.3445 20.1593 17.3008 19.4434C16.2847 18.7464 15.526 17.8417 15.0342 16.7354L15.0312 16.7295L15.0283 16.7227C14.584 15.6398 14.3633 14.4871 14.3633 13.2695C14.3633 11.4914 14.7655 9.81517 15.5693 8.24805L15.5713 8.24414C16.3975 6.66849 17.4243 5.29758 18.6523 4.13574C19.8745 2.97951 21.1617 2.10977 22.5156 1.53906L22.7705 1.43164L22.9971 1.59082Z" stroke="#367ACA"/>
</svg>
