<svg width="332" height="66" viewBox="0 0 332 66" fill="none" xmlns="http://www.w3.org/2000/svg">
<rect x="1.5" y="1.5" width="329" height="55" rx="14.5" stroke="#FEFFDF" stroke-width="3" stroke-dasharray="14 14"/>
<g filter="url(#filter0_d_1051_23689)">
<path d="M89.593 45V26.76C89.593 25.928 89.593 25.08 89.593 24.216C89.625 23.32 89.641 22.408 89.641 21.48C88.585 22.44 87.417 23.288 86.137 24.024C84.857 24.728 83.513 25.208 82.105 25.464L81.337 18.648C82.169 18.584 83.049 18.376 83.977 18.024C84.937 17.672 85.881 17.24 86.809 16.728C87.737 16.216 88.569 15.672 89.305 15.096C90.041 14.488 90.601 13.896 90.985 13.32H97.561V45H89.593ZM111.753 45.48C107.433 45.48 104.153 44.104 101.913 41.352C99.7049 38.6 98.6009 34.536 98.6009 29.16C98.6009 23.784 99.7049 19.72 101.913 16.968C104.153 14.216 107.433 12.84 111.753 12.84C116.073 12.84 119.337 14.216 121.545 16.968C123.785 19.72 124.905 23.784 124.905 29.16C124.905 34.536 123.785 38.6 121.545 41.352C119.337 44.104 116.073 45.48 111.753 45.48ZM111.753 39.048C112.937 39.048 113.897 38.728 114.633 38.088C115.369 37.416 115.897 36.36 116.217 34.92C116.569 33.448 116.745 31.528 116.745 29.16C116.745 26.792 116.569 24.888 116.217 23.448C115.897 21.976 115.369 20.92 114.633 20.28C113.897 19.608 112.937 19.272 111.753 19.272C110.601 19.272 109.641 19.608 108.873 20.28C108.137 20.92 107.593 21.976 107.241 23.448C106.921 24.888 106.761 26.792 106.761 29.16C106.761 31.528 106.921 33.448 107.241 34.92C107.593 36.36 108.137 37.416 108.873 38.088C109.641 38.728 110.601 39.048 111.753 39.048ZM146.778 45.48C142.458 45.48 139.178 44.104 136.938 41.352C134.73 38.6 133.626 34.536 133.626 29.16C133.626 23.784 134.73 19.72 136.938 16.968C139.178 14.216 142.458 12.84 146.778 12.84C151.098 12.84 154.362 14.216 156.57 16.968C158.81 19.72 159.93 23.784 159.93 29.16C159.93 34.536 158.81 38.6 156.57 41.352C154.362 44.104 151.098 45.48 146.778 45.48ZM146.778 39.048C147.962 39.048 148.922 38.728 149.658 38.088C150.394 37.416 150.922 36.36 151.242 34.92C151.594 33.448 151.77 31.528 151.77 29.16C151.77 26.792 151.594 24.888 151.242 23.448C150.922 21.976 150.394 20.92 149.658 20.28C148.922 19.608 147.962 19.272 146.778 19.272C145.626 19.272 144.666 19.608 143.898 20.28C143.162 20.92 142.618 21.976 142.266 23.448C141.946 24.888 141.786 26.792 141.786 29.16C141.786 31.528 141.946 33.448 142.266 34.92C142.618 36.36 143.162 37.416 143.898 38.088C144.666 38.728 145.626 39.048 146.778 39.048ZM172.869 45.48C168.549 45.48 165.269 44.104 163.029 41.352C160.821 38.6 159.717 34.536 159.717 29.16C159.717 23.784 160.821 19.72 163.029 16.968C165.269 14.216 168.549 12.84 172.869 12.84C177.189 12.84 180.453 14.216 182.661 16.968C184.901 19.72 186.021 23.784 186.021 29.16C186.021 34.536 184.901 38.6 182.661 41.352C180.453 44.104 177.189 45.48 172.869 45.48ZM172.869 39.048C174.053 39.048 175.013 38.728 175.749 38.088C176.485 37.416 177.013 36.36 177.333 34.92C177.685 33.448 177.861 31.528 177.861 29.16C177.861 26.792 177.685 24.888 177.333 23.448C177.013 21.976 176.485 20.92 175.749 20.28C175.013 19.608 174.053 19.272 172.869 19.272C171.717 19.272 170.757 19.608 169.989 20.28C169.253 20.92 168.709 21.976 168.357 23.448C168.037 24.888 167.877 26.792 167.877 29.16C167.877 31.528 168.037 33.448 168.357 34.92C168.709 36.36 169.253 37.416 169.989 38.088C170.757 38.728 171.717 39.048 172.869 39.048ZM198.959 45.48C194.639 45.48 191.359 44.104 189.119 41.352C186.911 38.6 185.807 34.536 185.807 29.16C185.807 23.784 186.911 19.72 189.119 16.968C191.359 14.216 194.639 12.84 198.959 12.84C203.279 12.84 206.543 14.216 208.751 16.968C210.991 19.72 212.111 23.784 212.111 29.16C212.111 34.536 210.991 38.6 208.751 41.352C206.543 44.104 203.279 45.48 198.959 45.48ZM198.959 39.048C200.143 39.048 201.103 38.728 201.839 38.088C202.575 37.416 203.103 36.36 203.423 34.92C203.775 33.448 203.951 31.528 203.951 29.16C203.951 26.792 203.775 24.888 203.423 23.448C203.103 21.976 202.575 20.92 201.839 20.28C201.103 19.608 200.143 19.272 198.959 19.272C197.807 19.272 196.847 19.608 196.079 20.28C195.343 20.92 194.799 21.976 194.447 23.448C194.127 24.888 193.967 26.792 193.967 29.16C193.967 31.528 194.127 33.448 194.447 34.92C194.799 36.36 195.343 37.416 196.079 38.088C196.847 38.728 197.807 39.048 198.959 39.048ZM224.24 45V39.096H220.016V35.064H224.24V32.28H220.016V28.008H224.24V13.32H237.584C240.24 13.32 242.464 13.704 244.256 14.472C246.08 15.24 247.456 16.328 248.384 17.736C249.344 19.144 249.824 20.808 249.824 22.728C249.824 24.776 249.344 26.52 248.384 27.96C247.456 29.368 246.08 30.44 244.256 31.176C242.464 31.912 240.24 32.28 237.584 32.28H232.352V35.064H241.04V39.096H232.352V45H224.24ZM232.352 28.008H236.288C238.08 28.008 239.392 27.656 240.224 26.952C241.088 26.248 241.52 25.176 241.52 23.736C241.52 22.328 241.088 21.272 240.224 20.568C239.392 19.864 238.08 19.512 236.288 19.512H232.352V28.008Z" fill="#FEFFDF"/>
</g>
<defs>
<filter id="filter0_d_1051_23689" x="65.3359" y="0.84375" width="200.484" height="64.6328" filterUnits="userSpaceOnUse" color-interpolation-filters="sRGB">
<feFlood flood-opacity="0" result="BackgroundImageFix"/>
<feColorMatrix in="SourceAlpha" type="matrix" values="0 0 0 0 0 0 0 0 0 0 0 0 0 0 0 0 0 0 127 0" result="hardAlpha"/>
<feOffset dy="4"/>
<feGaussianBlur stdDeviation="8"/>
<feComposite in2="hardAlpha" operator="out"/>
<feColorMatrix type="matrix" values="0 0 0 0 1 0 0 0 0 1 0 0 0 0 1 0 0 0 0.6 0"/>
<feBlend mode="normal" in2="BackgroundImageFix" result="effect1_dropShadow_1051_23689"/>
<feBlend mode="normal" in="SourceGraphic" in2="effect1_dropShadow_1051_23689" result="shape"/>
</filter>
</defs>
</svg>
