<svg width="18" height="20" viewBox="0 0 18 20" fill="none" xmlns="http://www.w3.org/2000/svg">
<path d="M6.05483 0.287992L7.06592 0.455805C7.79764 0.647992 8.5153 0.911899 9.14951 1.32956C9.80389 0.931586 10.5126 0.642367 11.257 0.455805L12.2681 0.287992C12.562 0.303461 12.8751 0.266899 13.1662 0.287992C17.2847 0.586118 18.7955 4.88549 17.4234 8.37862C17.01 9.43143 16.2975 10.263 15.8287 11.2741C14.8453 13.3947 15.0436 15.6635 14.1572 17.7592C13.3561 19.6544 11.7942 20.2197 10.8389 18.0471C10.222 16.6441 10.1962 15.3105 9.89858 13.8611C9.82639 13.5091 9.41764 12.0278 8.8617 12.7277C8.36342 13.3549 8.31842 14.7653 8.17639 15.5594C7.94811 16.8321 7.03498 20.7803 5.01045 19.0469C3.47998 17.7367 3.49639 13.9225 2.79936 12.0161C2.21576 10.4205 1.06779 9.24721 0.638889 7.59112C-0.237674 4.20581 1.38326 0.560805 5.1567 0.287524H6.05483V0.287992Z" fill="white"/>
</svg>
